<?xml version="1.0" encoding="iso-8859-1"?>
<!-- Generator: Adobe Illustrator 21.0.0, SVG Export Plug-In . SVG Version: 6.00 Build 0)  -->
<svg xmlns="http://www.w3.org/2000/svg" xmlns:xlink="http://www.w3.org/1999/xlink" version="1.1" id="Capa_1" x="0px" y="0px" viewBox="0 0 504.5 504.5" style="enable-background:new 0 0 504.5 504.5;" xml:space="preserve" width="512" height="512">
<g>
	<g>
		<g>
			<path style="fill:#787780;" d="M401.35,64.698c-4.143,0-7.5-3.358-7.5-7.5V7.5c0-4.142,3.357-7.5,7.5-7.5     c4.143,0,7.5,3.358,7.5,7.5v49.698C408.85,61.34,405.492,64.698,401.35,64.698z"/>
		</g>
	</g>
	<path style="fill:#CAE8F9;" d="M426.2,119.749V63.198c0-3.314-2.686-6-6-6h-37.698c-3.314,0-6,2.686-6,6v34.213L426.2,119.749z"/>
	<path style="fill:#AADBF6;" d="M420.2,57.198h-22c3.314,0,6,2.686,6,6v46.663l22,9.888V63.198   C426.2,59.885,423.513,57.198,420.2,57.198z"/>
	<path style="fill:#18A7FC;" d="M243.967,106.898V49.369c0-4.211,4.224-7.112,8.154-5.6l203.366,78.219   c2.317,0.891,3.846,3.118,3.846,5.6V498.5c0,3.314-2.686,6-6,6H243.967V106.898z"/>
	<path style="fill:#1689FC;" d="M455.487,121.988L252.121,43.769c-3.845-1.479-7.961,1.27-8.137,5.333l189.5,72.886   c2.317,0.891,3.846,3.118,3.846,5.6V498.5c0,3.314-2.686,6-6,6h22.003c3.314,0,6-2.686,6-6V127.588   C459.333,125.105,457.804,122.879,455.487,121.988z"/>
	<g>
		<path style="fill:#CAE8F9;" d="M293.667,214.999v283.499c0,3.314-2.686,6-6,6H67.733c-3.314,0-6-2.686-6-6V214.999H293.667z"/>
		<path style="fill:#AADBF6;" d="M271.667,214.999v283.499c0,3.314-2.686,6-6,6h22c3.314,0,6-2.686,6-6V214.999H271.667z"/>
		<rect x="94.867" y="256.002" style="fill:#18A7FC;" width="165.666" height="248.496"/>
		<path style="fill:#787780;" d="M177.7,66.269c-4.142,0-7.5,3.358-7.5,7.5V106.9c0,4.142,3.358,7.5,7.5,7.5    c4.142,0,7.5-3.358,7.5-7.5V73.769C185.2,69.627,181.842,66.269,177.7,66.269z"/>
		<g>
			<g>
				<path style="fill:#1689FC;" d="M135.499,504.498V256c0-4.142-3.358-7.5-7.5-7.5s-7.5,3.358-7.5,7.5v248.497H135.499z"/>
				<path style="fill:#1689FC;" d="M168.632,504.498V256c0-4.142-3.358-7.5-7.5-7.5c-4.142,0-7.5,3.358-7.5,7.5v248.497H168.632z"/>
				<path style="fill:#1689FC;" d="M201.765,504.498V256c0-4.142-3.358-7.5-7.5-7.5c-4.142,0-7.5,3.358-7.5,7.5v248.497H201.765z"/>
				<path style="fill:#1689FC;" d="M234.899,504.498V256c0-4.142-3.358-7.5-7.5-7.5c-4.142,0-7.5,3.358-7.5,7.5v248.497H234.899z"/>
			</g>
		</g>
		<rect x="94.867" y="128.999" style="fill:#CAE8F9;" width="165.666" height="71.769"/>
		<rect x="238.532" y="128.999" style="fill:#AADBF6;" width="22" height="71.769"/>
		<polygon style="fill:#AADBF6;" points="61.733,263.502 61.733,263.502 293.666,263.502 293.667,263.502 293.667,248.502     293.666,248.502 61.733,248.502 61.733,248.502   "/>
	</g>
	<path style="fill:#CAE8F9;" d="M387.066,206.298h-21.132c-3.314,0-6-2.686-6-6v-21.132c0-3.314,2.686-6,6-6h21.132   c3.314,0,6,2.686,6,6v21.132C393.066,203.612,390.38,206.298,387.066,206.298z"/>
	<path style="fill:#CAE8F9;" d="M387.066,289.131h-21.132c-3.314,0-6-2.686-6-6V262c0-3.314,2.686-6,6-6h21.132c3.314,0,6,2.686,6,6   v21.132C393.066,286.445,390.38,289.131,387.066,289.131z"/>
	<path style="fill:#CAE8F9;" d="M387.066,371.965h-21.132c-3.314,0-6-2.686-6-6v-21.132c0-3.314,2.686-6,6-6h21.132   c3.314,0,6,2.686,6,6v21.132C393.066,369.278,390.38,371.965,387.066,371.965z"/>
	<path style="fill:#CAE8F9;" d="M387.066,454.798h-21.132c-3.314,0-6-2.686-6-6v-21.132c0-3.314,2.686-6,6-6h21.132   c3.314,0,6,2.686,6,6v21.132C393.066,452.112,390.38,454.798,387.066,454.798z"/>
	<path style="fill:#FEDB41;" d="M78.299,112.902v21.132c0,3.314,2.686,6,6,6H271.1c3.314,0,6-2.686,6-6l0.001-21.132   c0-3.314-2.686-6-6-6H84.299C80.985,106.902,78.299,109.588,78.299,112.902z"/>
	<path style="fill:#FCBF29;" d="M271.101,106.902h-22c3.314,0,6,2.687,6,6l-0.001,21.132c0,3.314-2.686,6-6,6h22   c3.314,0,6-2.686,6-6l0.001-21.132C277.101,109.589,274.415,106.902,271.101,106.902z"/>
	<g>
		<path style="fill:#FEDB41;" d="M45.167,195.735v21.132c0,3.314,2.686,6,6,6h253.064c3.314,0,6-2.686,6-6l0.001-21.132    c0-3.314-2.686-6-6-6H51.167C47.854,189.735,45.167,192.421,45.167,195.735z"/>
		<path style="fill:#FCBF29;" d="M304.233,189.735h-22c3.314,0,6,2.686,6,6l-0.001,21.132c0,3.314-2.686,6-6,6h22    c3.314,0,6-2.686,6-6l0.001-21.132C310.233,192.421,307.546,189.735,304.233,189.735z"/>
	</g>
	<polygon style="fill:#FEDB41;" points="243.967,81.801 459.333,164.635 459.333,148.564 243.967,65.73  "/>
</g>















</svg>
