<svg height="512pt" viewBox="0 -100 512.00056 512" width="512pt" xmlns="http://www.w3.org/2000/svg"><path d="m393.816406 24.824219-141.214844 133.375h141.070313l50.800781-126.996094c2.03125-5.078125-1.707031-10.597656-7.171875-10.597656h-32.875c-3.945312 0-7.738281 1.507812-10.609375 4.21875zm0 0" fill="#1a3e6e"/><path d="m150.4375 86.085938c-51.09375 0-101.046875 14.160156-144.40625 40.710937-3.753906 2.296875-6.03125 6.398437-6.03125 10.796875 0 4.402344 2.277344 8.503906 6.03125 10.800781 43.359375 26.550781 93.3125 40.710938 144.40625 40.710938h317.054688c4.214843 0 8.003906-2.566407 9.566406-6.476563l34.382812-85.945312c2.027344-5.078125-1.707031-10.597656-7.175781-10.597656zm0 0" fill="#5c87bd"/><path d="m504.265625 86.085938h-21.871094l-28.847656 72.113281h-303.109375c-45.28125 0-89.636719-12.503907-128.269531-36.164063l-3.835938-2.347656c-4.15625 2.261719-8.257812 4.628906-12.300781 7.105469-3.753906 2.300781-6.03125 6.402343-6.03125 10.800781 0 4.402344 2.277344 8.503906 6.03125 10.800781 43.359375 26.550781 93.3125 40.707031 144.40625 40.707031h317.054688c4.214843 0 8.003906-2.5625 9.566406-6.472656l34.382812-85.949218c2.027344-5.074219-1.707031-10.59375-7.175781-10.59375zm0 0" fill="#315588"/><path d="m279.8125 220.011719h-77.261719c-8.535156 0-15.453125-6.917969-15.453125-15.453125s6.917969-15.453125 15.453125-15.453125h77.261719zm0 0" fill="#1a3e6e"/><path d="m390.253906 281.820312h-77.265625c-8.535156 0-15.453125-6.917968-15.453125-15.453124 0-8.535157 6.917969-15.453126 15.453125-15.453126h77.265625zm0 0" fill="#1a3e6e"/><path d="m436.679688 312.726562c-2.882813 0-5.71875-.738281-8.238282-2.148437l-272.25-152.378906h297.355469v137.660156c0 9.316406-7.550781 16.867187-16.867187 16.867187zm0 0" fill="#456ea2"/><path d="m422.640625 271.914062-203.167969-113.714843h-63.28125l272.25 152.378906c2.519532 1.410156 5.355469 2.148437 8.238282 2.148437 9.316406 0 16.867187-7.550781 16.867187-16.867187v-137.660156c-17.070313 0-30.90625 13.835937-30.90625 30.90625zm0 0" fill="#315588"/><path d="m298.863281 161.304688c-.402343-14.730469-12.859375-26.285157-27.59375-26.285157h-99.625c-8.535156 0-15.453125 6.917969-15.453125 15.453125v23.179688c0 8.535156 6.917969 15.453125 15.453125 15.453125h100.1875c15.1875 0 27.449219-12.519531 27.03125-27.800781zm0 0" fill="#456ea2"/><path d="m271.269531 135.019531h-4.042969c.347657 12.699219-9.851562 23.179688-22.554687 23.179688h-88.480469v15.453125c0 8.535156 6.917969 15.453125 15.453125 15.453125h100.1875c15.1875 0 27.449219-12.523438 27.03125-27.804688-.40625-14.726562-12.859375-26.28125-27.59375-26.28125zm0 0" fill="#1a3e6e"/><path d="m461.933594 4.21875-141.21875 133.375h141.070312c1.152344-2.871094 50.554688-126.371094 49.492188-123.722656.519531-1.292969.722656-2.574219.722656-3.855469 0-5.296875-4.347656-10.015625-10.113281-10.015625h-29.34375c-3.945313 0-7.742188 1.507812-10.609375 4.21875zm0 0" fill="#456ea2"/><path d="m501.890625 0h-18.347656l-42.679688 106.691406h-87.425781l-32.71875 30.902344h141.066406c1.128906-2.816406 48.679688-121.6875 49.496094-123.722656.515625-1.292969.71875-2.574219.71875-3.855469 0-5.296875-4.347656-10.015625-10.109375-10.015625zm0 0" fill="#1a3e6e"/><path d="m176.84375 74.429688c-17.128906-24.507813-51.53125-30.175782-74.976562-11.621094-.507813.402344-1.011719.8125-1.507813 1.234375l-46.75 39.554687h96.660156c13.695313 0 26.582031-6.496094 34.726563-17.511718zm0 0" fill="#87f8f4"/><path d="m176.84375 74.429688c-6.527344-9.339844-15.566406-15.933594-25.546875-19.503907-.003906.0625-.007813.125-.011719.1875-.613281 9.925781-9.007812 17.582031-18.953125 17.582031h-42.199219l-36.523437 30.902344h96.660156c13.695313 0 26.582031-6.496094 34.726563-17.511718zm0 0" fill="#00e7ec"/></svg>